<svg width="495" height="266" viewBox="0 0 495 266" fill="none" xmlns="http://www.w3.org/2000/svg">
<path d="M131.872 95.379V222.32H94.2783V155.432H0L61.2248 35.1796H109.316L65.3747 117.838H94.3759V95.2814L131.872 95.379Z" fill="#BFD121"/>
<path d="M339.812 183.554C339.753 194.483 337.564 205.296 333.367 215.387C327.226 230.289 316.743 242.999 303.281 251.863C289.819 260.727 274.002 265.336 257.886 265.09C247.09 265.197 236.382 263.139 226.395 259.036C216.613 254.823 207.729 248.774 200.226 241.215C192.692 233.903 186.757 225.109 182.796 215.387C178.572 205.304 176.382 194.486 176.351 183.554V82.2944C176.325 71.5828 178.422 60.9723 182.52 51.0755C186.617 41.1787 192.635 32.1918 200.226 24.6337C207.732 17.177 216.621 11.2564 226.395 7.20371C236.349 2.9515 247.062 0.759202 257.886 0.759003C268.821 0.760003 279.645 2.95134 289.719 7.20371C299.499 11.2441 308.391 17.1662 315.889 24.6337C323.151 32.1603 329.063 40.8805 333.367 50.4126C337.56 60.5223 339.748 71.3501 339.812 82.2944V183.554ZM286.692 82.2944C286.387 74.9045 283.237 67.9187 277.9 62.7978C272.563 57.677 265.453 54.8176 258.057 54.8176C250.661 54.8176 243.551 57.677 238.214 62.7978C232.878 67.9187 229.727 74.9045 229.422 82.2944V183.554C229.727 190.944 232.878 197.93 238.214 203.051C243.551 208.172 250.661 211.031 258.057 211.031C265.453 211.031 272.563 208.172 277.9 203.051C283.237 197.93 286.387 190.944 286.692 183.554V82.2944Z" fill="#BFD121"/>
<path d="M494.68 95.379V222.32H456.988V155.432H362.808L424.032 35.1796H472.124L428.182 117.838H456.988V95.2814L494.68 95.379Z" fill="#BFD121"/>
<path d="M242.506 102.8L228.689 88.9832L219.12 98.5527L209.551 88.9832L195.782 102.8L205.303 112.37L195.782 121.939L209.551 135.756L219.12 126.187L228.689 135.756L242.506 121.939L232.937 112.37L242.506 102.8Z" fill="white" stroke="#BFD125" stroke-miterlimit="10"/>
<path d="M315.205 102.8L301.388 88.9832L291.867 98.5527L282.298 88.9832L268.481 102.8L278.05 112.37L268.481 121.939L282.298 135.756L291.867 126.187L301.388 135.756L315.205 121.939L305.635 112.37L315.205 102.8Z" fill="white" stroke="#BFD125" stroke-miterlimit="10"/>
<path d="M293.43 148.401H227.518C224.237 148.401 221.09 149.701 218.766 152.016C216.442 154.331 215.13 157.473 215.117 160.754C215.104 162.391 215.415 164.014 216.032 165.529C216.65 167.045 217.561 168.424 218.714 169.586C219.867 170.748 221.238 171.67 222.749 172.299C224.26 172.929 225.881 173.253 227.518 173.253H253.785V179.697C253.785 182.158 254.762 184.517 256.502 186.257C258.242 187.996 260.601 188.974 263.061 188.974H272.387V194.881C272.387 197.342 273.364 199.701 275.104 201.441C276.843 203.181 279.203 204.158 281.663 204.158C282.885 204.164 284.097 203.929 285.228 203.466C286.359 203.003 287.388 202.32 288.254 201.458C289.121 200.596 289.808 199.571 290.278 198.443C290.747 197.314 290.988 196.104 290.988 194.881V173.253H293.43C296.706 173.253 299.848 171.951 302.164 169.635C304.481 167.318 305.782 164.176 305.782 160.9C305.801 159.266 305.496 157.644 304.884 156.128C304.272 154.613 303.365 153.234 302.216 152.071C301.067 150.908 299.699 149.985 298.191 149.355C296.682 148.726 295.064 148.401 293.43 148.401Z" fill="white" stroke="#BFD125" stroke-miterlimit="10"/>
</svg>
