<svg width="143" height="43" viewBox="0 0 143 43" fill="none" xmlns="http://www.w3.org/2000/svg">
<path d="M21.6059 16.8496C21.5953 18.7103 21.0539 20.5298 20.0443 22.0968C19.0348 23.6637 17.5987 24.9139 15.9029 25.7019C14.207 26.4899 12.321 26.7835 10.464 26.5486C8.60692 26.3137 6.85505 25.5598 5.41187 24.3747V26.6255H0.0383829L0 0H5.37349V9.30542C6.81327 8.0921 8.57326 7.31516 10.4443 7.06694C12.3153 6.81872 14.2187 7.10967 15.9282 7.90519C17.6378 8.70072 19.0816 9.96738 20.088 11.5546C21.0945 13.1419 21.6213 14.983 21.6059 16.8591V16.8496ZM16.6162 16.8114C16.6161 15.5257 16.1058 14.292 15.1961 13.3779C14.7429 12.9287 14.2044 12.5735 13.612 12.3328C13.0195 12.0922 12.3849 11.9708 11.7449 11.9759C10.4581 11.9726 9.22006 12.4649 8.29052 13.3493C7.83706 13.7998 7.47804 14.3352 7.23427 14.9246C6.9905 15.514 6.86681 16.1456 6.87039 16.7828C6.85092 17.4188 6.96358 18.0519 7.20132 18.6427C7.43906 19.2334 7.79678 19.7691 8.25214 20.2163C9.17377 21.1223 10.4106 21.6413 11.7065 21.666C12.3476 21.6696 12.9831 21.5466 13.576 21.3043C14.169 21.062 14.7077 20.7052 15.1609 20.2545C16.0726 19.335 16.5937 18.1022 16.6162 16.8114Z" fill="white"/>
<path d="M22.2073 6.13428H27.1969V16.0501C27.1969 17.3472 28.0797 20.857 31.6748 20.857C35.6282 20.857 36.1527 17.309 36.1527 16.0119V6.13428H41.523V25.8451H36.1783V23.785C34.7198 25.3746 33.1078 25.8451 31.3422 25.8451C26.2758 25.8833 22.2073 21.763 22.2073 16.4221V6.13428Z" fill="white"/>
<path d="M47.178 25.2959C46.2623 24.9427 45.4271 24.4108 44.7215 23.7317C44.0305 23.0789 43.4941 22.2816 43.1511 21.3975C42.8082 20.5134 42.6672 19.5645 42.7385 18.6196V18.2L47.034 18.2763H47.3795V18.5942C47.405 19.1397 47.549 19.6733 47.8017 20.1583C48.2623 20.9213 49.2602 21.2647 50.6803 21.2647C51.8702 21.2647 52.753 21.1502 53.3287 20.845C53.9044 20.5398 54.0196 20.1583 54.0196 19.9294C54.0196 18.7086 51.7806 18.289 50.5012 18.1364C49.1819 18.0304 47.8871 17.7215 46.663 17.2208C45.7071 16.8485 44.8431 16.276 44.1298 15.5422C43.2199 14.5637 42.7219 13.2757 42.7385 11.9434C42.7052 10.5456 43.1966 9.18564 44.117 8.12836C45.4988 6.56739 47.7249 5.76624 50.7571 5.76624C54.7488 5.76624 56.7447 7.51796 57.7042 9.00581C58.3993 10.1311 58.7709 11.4241 58.7789 12.7445V13.0879H54.1251V12.7445C54.1281 12.3133 54.0084 11.8901 53.7797 11.5237C53.2423 10.7989 52.1804 10.3792 50.7475 10.3792C49.1482 10.3792 47.5234 10.7989 47.5234 11.7145C47.5234 12.1723 47.7537 12.5156 48.2911 12.8208C48.8284 13.126 49.788 13.3931 51.0162 13.5457C53.9332 13.8636 56.1338 14.8173 57.4132 16.3306C58.2839 17.3243 58.7614 18.5989 58.7565 19.9167C58.8068 21.2697 58.3406 22.5915 57.4516 23.6173C56.7271 24.4187 55.7991 25.0117 54.7648 25.334C53.4358 25.7432 52.049 25.9365 50.6579 25.9062C49.469 25.9298 48.287 25.7224 47.178 25.2959Z" fill="white"/>
<path d="M65.2399 4.52721H59.908V0.0255127H65.2399V4.52721ZM65.2783 26.6129H59.908V7.00696H65.2783V26.6129Z" fill="white"/>
<path d="M87.9301 16.0564V25.861H82.9404V16.1709H82.902V16.0946C82.9054 15.4574 82.7817 14.8259 82.5379 14.2365C82.2941 13.6472 81.9352 13.1117 81.4819 12.6611C81.0286 12.2105 80.4899 11.8538 79.8969 11.6115C79.304 11.3692 78.6686 11.2462 78.0275 11.2496C76.7316 11.2743 75.4948 11.7933 74.5731 12.6993C74.1178 13.1464 73.7601 13.6821 73.5223 14.2729C73.2846 14.8637 73.1719 15.4968 73.1914 16.1328V16.1709H73.153V25.861H67.7827V6.13428H73.153V8.67761C74.7523 6.77011 76.2236 6.42994 77.9891 6.27734C83.401 5.83543 87.9301 9.31344 87.9301 16.0564Z" fill="white"/>
<path d="M108.308 17.8408L93.8795 17.8026C94.0928 18.451 94.4772 19.0307 94.9925 19.4812C95.9162 20.3794 97.1548 20.8855 98.4469 20.8928C99.7418 20.8676 100.977 20.3485 101.898 19.4431L102.052 19.2905L107.041 20.8546C104.969 24.0338 102.781 25.8141 98.4821 25.8523C96.527 25.8636 94.6124 25.2983 92.9806 24.2278C91.3488 23.1574 90.0731 21.6299 89.3148 19.8387C88.5566 18.0475 88.3498 16.073 88.7208 14.165C89.0917 12.2569 90.0237 10.5011 91.3988 9.11969C92.7739 7.73823 94.5303 6.79318 96.4459 6.40411C98.3614 6.01503 100.35 6.19941 102.16 6.93391C103.97 7.6684 105.521 8.92003 106.615 10.5304C107.709 12.1408 108.298 14.0377 108.308 15.981C108.308 16.2385 108.34 17.5706 108.308 17.8408ZM94.9542 12.6142C94.5104 13.074 94.1587 13.6134 93.9178 14.2038H102.934C102.686 13.593 102.321 13.0359 101.86 12.5634C100.924 11.6834 99.6808 11.199 98.3925 11.2122C97.7537 11.2087 97.1205 11.3307 96.5293 11.5713C95.9381 11.812 95.4006 12.1664 94.9478 12.6142H94.9542Z" fill="white"/>
<path d="M113.784 25.2945C112.868 24.9413 112.033 24.4095 111.327 23.7303C110.633 23.0791 110.094 22.2824 109.749 21.3981C109.404 20.5138 109.261 19.5642 109.331 18.6182V18.1986L113.63 18.2749H113.976V18.5928C114.001 19.1384 114.145 19.672 114.398 20.157C114.858 20.92 115.856 21.2633 117.277 21.2633C118.466 21.2633 119.349 21.1489 119.925 20.8437C120.501 20.5385 120.616 20.157 120.616 19.9281C120.616 18.7073 118.377 18.2876 117.097 18.135C115.778 18.029 114.483 17.7201 113.259 17.2194C112.303 16.8472 111.439 16.2746 110.726 15.5408C109.823 14.5639 109.329 13.2813 109.344 11.9547C109.312 10.5566 109.804 9.19652 110.726 8.13971C112.108 6.57874 114.334 5.77759 117.366 5.77759C121.358 5.77759 123.354 7.5293 124.313 9.01715C125.006 10.1432 125.377 11.4359 125.385 12.7559V13.0992H120.731V12.7559C120.734 12.3247 120.614 11.9015 120.385 11.5351C119.848 10.8102 118.786 10.3906 117.353 10.3906C115.754 10.3906 114.129 10.8102 114.129 11.7258C114.129 12.1836 114.359 12.527 114.897 12.8322C115.434 13.1374 116.394 13.4044 117.622 13.557C120.539 13.8749 122.74 14.8287 124.019 16.342C124.888 17.3368 125.364 18.6109 125.359 19.9281C125.409 21.281 124.943 22.6029 124.054 23.6286C123.332 24.4307 122.404 25.0238 121.371 25.3454C120.042 25.7546 118.655 25.9478 117.264 25.9176C116.074 25.9371 114.892 25.7254 113.784 25.2945Z" fill="white"/>
<path d="M131.017 25.2959C130.102 24.9427 129.266 24.4108 128.561 23.7317C127.862 23.0829 127.318 22.2872 126.969 21.4028C126.619 20.5184 126.472 19.5675 126.539 18.6196V18.2L130.838 18.2763H131.183V18.5942C131.209 19.1397 131.353 19.6733 131.606 20.1583C132.066 20.9213 133.064 21.2647 134.484 21.2647C135.674 21.2647 136.557 21.1502 137.133 20.845C137.708 20.5398 137.824 20.1583 137.824 19.9294C137.824 18.7086 135.585 18.289 134.305 18.1364C132.986 18.0304 131.691 17.7215 130.467 17.2208C129.511 16.8485 128.647 16.276 127.934 15.5422C127.023 14.564 126.524 13.2761 126.539 11.9434C126.507 10.5452 126.999 9.18517 127.921 8.12836C129.303 6.56739 131.529 5.76624 134.561 5.76624C138.553 5.76624 140.549 7.51796 141.508 9.00581C142.201 10.1318 142.572 11.4245 142.58 12.7445V13.0879H137.948V12.7445C137.951 12.3133 137.832 11.8901 137.603 11.5237C137.066 10.7989 136.004 10.3792 134.571 10.3792C132.971 10.3792 131.347 10.7989 131.347 11.7145C131.347 12.1723 131.577 12.5156 132.114 12.8208C132.652 13.126 133.611 13.3931 134.839 13.5457C137.756 13.8636 139.957 14.8173 141.236 16.3306C142.094 17.3516 142.566 18.6374 142.573 19.9671C142.58 21.2968 142.121 22.5874 141.275 23.6173C140.55 24.4187 139.622 25.0117 138.588 25.334C137.259 25.7432 135.872 25.9365 134.481 25.9062C133.298 25.9277 132.121 25.7204 131.017 25.2959Z" fill="white"/>
<path d="M14.4221 26.5157V42.3321L3.86708 34.6194V42.3321H0.0512695V26.5157L10.6063 34.594V26.5157H14.4221Z" fill="#BFD121"/>
<path d="M48.7645 34.5853C48.7645 36.1982 48.2834 37.7748 47.3819 39.1158C46.4804 40.4568 45.1991 41.502 43.7 42.1192C42.2009 42.7364 40.5513 42.8978 38.9598 42.5832C37.3684 42.2686 35.9065 41.4919 34.7591 40.3515C33.6118 39.211 32.8304 37.758 32.5138 36.1762C32.1973 34.5944 32.3598 32.9548 32.9807 31.4647C33.6017 29.9747 34.6532 28.7011 36.0024 27.8051C37.3515 26.909 38.9377 26.4308 40.5604 26.4308C42.7362 26.4308 44.823 27.2899 46.3616 28.8192C47.9002 30.3485 48.7645 32.4226 48.7645 34.5853ZM45.3357 34.5853C45.3354 33.8049 45.1415 33.0366 44.7712 32.3484C44.4008 31.6602 43.8655 31.0735 43.2125 30.64C42.5596 30.2066 41.8092 29.9399 41.0278 29.8635C40.2464 29.7871 39.4581 29.9034 38.7327 30.2021C38.0073 30.5008 37.3672 30.9727 36.869 31.5759C36.3709 32.1792 36.0301 32.8953 35.8769 33.6607C35.7236 34.4261 35.7626 35.2173 35.9904 35.9641C36.2181 36.711 36.6277 37.3905 37.1828 37.9425C38.0814 38.8288 39.296 39.3261 40.562 39.3261C41.8279 39.3261 43.0425 38.8288 43.9412 37.9425C44.3856 37.5025 44.7376 36.9792 44.977 36.4029C45.2164 35.8266 45.3383 35.2088 45.3357 34.5853Z" fill="#BFD121"/>
<path d="M75.2673 42.3289V42.3067L75.2449 42.3289V42.3067L66.6985 26.5157H71.106L75.2641 34.4001L79.4061 26.5157H83.8137L75.2673 42.3067V42.3289Z" fill="#BFD121"/>
<path d="M115.025 35.2235L113.918 33.1666L110.323 26.5157L106.709 33.1666L105.589 35.2298L101.751 42.3321H106.165L107.313 40.1067H113.31L114.465 42.3321H118.863L115.025 35.2235ZM108.922 37.007L110.323 34.3715L111.692 37.007L111.762 37.1469H108.855L108.922 37.007Z" fill="#BFD121"/>
</svg>
